<?xml version="1.0" standalone="no"?>
<!DOCTYPE svg PUBLIC "-//W3C//DTD SVG 20010904//EN"
 "http://www.w3.org/TR/2001/REC-SVG-20010904/DTD/svg10.dtd">
<svg version="1.0" xmlns="http://www.w3.org/2000/svg"
 width="626.000000pt" height="626.000000pt" viewBox="0 0 626.000000 626.000000"
 preserveAspectRatio="xMidYMid meet">
<metadata>
Created by potrace 1.11, written by Peter Selinger 2001-2013
</metadata>
<g transform="translate(0.000000,626.000000) scale(0.100000,-0.100000)"
fill="#000000" stroke="none">
<path d="M2915 4901 c-154 -25 -195 -34 -190 -41 3 -4 -3 -6 -13 -3 -26 6
-221 -61 -337 -118 -116 -56 -331 -200 -327 -218 1 -7 -2 -10 -6 -7 -10 6
-109 -75 -151 -122 -131 -149 -225 -277 -215 -294 4 -6 3 -8 -3 -5 -6 4 -19
-10 -29 -31 -10 -20 -22 -39 -25 -42 -19 -15 -100 -205 -134 -310 -52 -168
-73 -291 -77 -458 -3 -93 -1 -105 16 -118 11 -8 32 -14 48 -14 l28 0 0 -722
c0 -698 1 -724 20 -755 25 -42 51 -55 108 -51 47 3 47 3 89 -54 80 -108 194
-172 346 -192 l37 -5 0 738 0 737 -66 -8 c-81 -9 -160 -44 -236 -104 l-58 -45
0 201 0 200 25 12 c44 20 53 48 64 191 32 392 210 724 509 949 584 441 1401
326 1840 -257 145 -194 252 -494 252 -710 0 -100 14 -142 56 -167 l34 -20 0
-205 0 -206 -42 39 c-24 22 -59 49 -78 61 -43 26 -141 59 -197 66 -35 4 -43 2
-43 -11 0 -10 0 -341 0 -737 l0 -720 38 3 c134 11 263 86 348 201 31 44 33 45
82 42 60 -3 86 9 112 52 19 31 20 57 20 759 0 643 2 727 15 722 26 -10 65 6
75 30 14 38 -6 273 -35 401 -30 135 -93 317 -106 309 -5 -3 -6 1 -3 9 10 26
-152 310 -173 303 -7 -3 -10 2 -8 13 4 22 -122 174 -137 165 -6 -4 -8 -3 -5 3
8 13 -37 56 -48 46 -4 -5 -5 -3 -2 3 8 14 -17 37 -28 26 -5 -4 -5 -2 -2 5 9
15 -109 117 -124 107 -7 -4 -9 -3 -5 4 3 6 -7 20 -23 31 -32 23 -46 27 -35 10
4 -8 0 -8 -15 0 -24 13 -28 23 -6 15 29 -12 14 4 -38 38 -95 64 -187 110 -205
103 -9 -3 -13 -3 -9 1 18 19 -205 99 -373 135 -84 17 -146 22 -305 25 -110 1
-222 -1 -250 -5z m530 -201 c-3 -5 2 -10 11 -10 10 0 15 -3 11 -6 -3 -3 -15
-3 -28 1 -17 6 -19 9 -8 16 18 11 22 11 14 -1z m185 -60 c18 -12 2 -12 -25 0
-13 6 -15 9 -5 9 8 0 22 -4 30 -9z m75 -20 c-3 -5 -12 -10 -18 -10 -7 0 -6 4
3 10 19 12 23 12 15 0z m-1195 -35 c-14 -8 -29 -14 -35 -14 -5 0 1 6 15 14 14
8 30 14 35 14 6 0 -1 -6 -15 -14z m1610 -222 c0 -7 -39 17 -46 28 -3 6 5 3 20
-6 14 -10 26 -19 26 -22z m30 33 c0 -2 -7 -7 -16 -10 -8 -3 -12 -2 -9 4 6 10
25 14 25 6z m10 -71 c13 -14 21 -25 18 -25 -2 0 -15 11 -28 25 -13 14 -21 25
-18 25 2 0 15 -11 28 -25z m74 -6 c-3 -5 -10 -7 -15 -3 -5 3 -7 10 -3 15 3 5
10 7 15 3 5 -3 7 -10 3 -15z m-2124 6 c0 -2 -10 -9 -22 -15 -22 -11 -22 -10
-4 4 21 17 26 19 26 11z m2100 -20 c13 -14 21 -25 18 -25 -2 0 -15 11 -28 25
-13 14 -21 25 -18 25 2 0 15 -11 28 -25z m-2187 -50 c4 -8 3 -16 -1 -19 -4 -3
-9 4 -9 15 -2 23 3 25 10 4z m2282 -27 c2 -20 1 -20 -11 -3 -7 10 -11 22 -8
27 8 13 17 2 19 -24z m-2337 -8 c-7 -10 -14 -17 -17 -15 -4 4 18 35 25 35 2 0
-1 -9 -8 -20z m2299 13 c-4 -3 -1 -13 6 -22 11 -14 10 -14 -5 -2 -16 12 -16
31 -1 31 4 0 3 -3 0 -7z m-2292 -41 l-28 -27 24 31 c13 17 26 30 28 27 3 -2
-8 -16 -24 -31z m2384 -57 c7 3 8 0 5 -9 -8 -20 -7 -20 -30 6 -14 17 -15 20
-2 9 9 -7 22 -10 27 -6z m-2445 -17 c-10 -13 -20 -25 -21 -27 -2 -2 -3 1 -3 7
0 11 27 42 37 42 3 0 -2 -10 -13 -22z m-40 -44 c3 -8 2 -12 -4 -9 -6 3 -10 10
-10 16 0 14 7 11 14 -7z m-40 -62 c3 -5 -1 -9 -9 -9 -8 0 -12 4 -9 9 3 4 7 8
9 8 2 0 6 -4 9 -8z m-34 -57 c0 -5 -5 -3 -10 5 -5 8 -10 20 -10 25 0 6 5 3 10
-5 5 -8 10 -19 10 -25z m2651 18 c13 -16 12 -17 -3 -4 -17 13 -22 21 -14 21 2
0 10 -8 17 -17z m23 -39 c3 -8 2 -12 -4 -9 -6 3 -10 10 -10 16 0 14 7 11 14
-7z m211 -803 c-6 -5 -25 10 -25 20 0 5 6 4 14 -3 8 -7 12 -15 11 -17z"/>
<path d="M2130 2075 l0 -735 99 0 c92 0 101 2 115 22 14 20 16 105 16 720 0
620 -2 698 -16 712 -12 12 -38 16 -115 16 l-99 0 0 -735z"/>
<path d="M3912 2798 c-9 -9 -12 -184 -12 -725 0 -825 -16 -733 129 -733 l91 0
0 735 0 735 -98 0 c-63 0 -102 -4 -110 -12z"/>
<path d="M1402 2329 c-82 -41 -107 -109 -100 -276 3 -86 8 -117 26 -149 23
-45 70 -80 121 -90 l31 -6 0 271 c0 306 5 291 -78 250z"/>
<path d="M4780 2080 c0 -304 -5 -289 77 -249 30 15 52 35 70 67 24 41 28 60
32 151 6 171 -25 249 -114 286 -69 29 -65 44 -65 -255z"/>
</g>
</svg>
